<mxfile host="app.diagrams.net" modified="2024-06-18T11:42:41.414Z" agent="Mozilla/5.0 (Windows NT 10.0; Win64; x64) AppleWebKit/537.36 (KHTML, like Gecko) Chrome/125.0.0.0 Safari/537.36" etag="0GsIpZ28ZZnMbchmLMcW" version="24.5.4" type="device" pages="3">
  <diagram name="Diagram" id="m8FLhAIfwvKZeJeV_rK2">
    <mxGraphModel dx="1500" dy="1146" grid="1" gridSize="10" guides="1" tooltips="1" connect="1" arrows="1" fold="1" page="0" pageScale="1" pageWidth="827" pageHeight="1169" math="0" shadow="0">
      <root>
        <mxCell id="0" />
        <mxCell id="1" parent="0" />
        <mxCell id="J-JsFPjW-MlSmSigU-X9-43" style="edgeStyle=orthogonalEdgeStyle;rounded=0;orthogonalLoop=1;jettySize=auto;html=1;exitX=0.5;exitY=1;exitDx=0;exitDy=0;curved=1;" edge="1" parent="1" source="2">
          <mxGeometry relative="1" as="geometry">
            <mxPoint x="140" y="-200" as="targetPoint" />
            <Array as="points">
              <mxPoint x="210" y="-240" />
              <mxPoint x="210" y="-210" />
              <mxPoint x="140" y="-210" />
            </Array>
          </mxGeometry>
        </mxCell>
        <mxCell id="2" value="Рисунок" style="shape=rectangle;whiteSpace=wrap;html=1;" parent="1" vertex="1">
          <mxGeometry x="90" y="-280" width="100" height="40" as="geometry" />
        </mxCell>
        <mxCell id="3" value="7x7 conv,64,/2" style="shape=rectangle;whiteSpace=wrap;html=1;fillColor=#FFFFCC;" parent="1" vertex="1">
          <mxGeometry x="90" y="-200" width="100" height="40" as="geometry" />
        </mxCell>
        <mxCell id="4" value="max pool, /2" style="shape=rectangle;whiteSpace=wrap;html=1;" parent="1" vertex="1">
          <mxGeometry x="90" y="-120" width="100" height="40" as="geometry" />
        </mxCell>
        <mxCell id="5" value="3x3 conv, 64" style="shape=rectangle;whiteSpace=wrap;html=1;fillColor=#99CCFF;" parent="1" vertex="1">
          <mxGeometry x="90" y="-40" width="100" height="40" as="geometry" />
        </mxCell>
        <mxCell id="6" value="3x3 conv, 64" style="shape=rectangle;whiteSpace=wrap;html=1;fillColor=#99CCFF;" parent="1" vertex="1">
          <mxGeometry x="90" y="40" width="100" height="40" as="geometry" />
        </mxCell>
        <mxCell id="7" value="3x3 conv, 64" style="shape=rectangle;whiteSpace=wrap;html=1;fillColor=#99CCFF;" parent="1" vertex="1">
          <mxGeometry x="90" y="120" width="100" height="40" as="geometry" />
        </mxCell>
        <mxCell id="8" value="3x3 conv, 64" style="shape=rectangle;whiteSpace=wrap;html=1;fillColor=#99CCFF;" parent="1" vertex="1">
          <mxGeometry x="90" y="200" width="100" height="40" as="geometry" />
        </mxCell>
        <mxCell id="9" value="3x3 conv, 128,/2" style="shape=rectangle;whiteSpace=wrap;html=1;fillColor=#CCFFCC;" parent="1" vertex="1">
          <mxGeometry x="90" y="280" width="100" height="40" as="geometry" />
        </mxCell>
        <mxCell id="10" value="3x3 conv, 128" style="shape=rectangle;whiteSpace=wrap;html=1;fillColor=#CCFFCC;" parent="1" vertex="1">
          <mxGeometry x="90" y="360" width="100" height="40" as="geometry" />
        </mxCell>
        <mxCell id="11" value="3x3 conv, 128" style="shape=rectangle;whiteSpace=wrap;html=1;fillColor=#CCFFCC;" parent="1" vertex="1">
          <mxGeometry x="90" y="440" width="100" height="40" as="geometry" />
        </mxCell>
        <mxCell id="12" value="3x3 conv, 128" style="shape=rectangle;whiteSpace=wrap;html=1;fillColor=#CCFFCC;" parent="1" vertex="1">
          <mxGeometry x="90" y="520" width="100" height="40" as="geometry" />
        </mxCell>
        <mxCell id="13" value="3x3 conv, 256,/2" style="shape=rectangle;whiteSpace=wrap;html=1;fillColor=#FFFFCC;" parent="1" vertex="1">
          <mxGeometry x="90" y="600" width="100" height="40" as="geometry" />
        </mxCell>
        <mxCell id="J-JsFPjW-MlSmSigU-X9-64" style="edgeStyle=orthogonalEdgeStyle;rounded=0;orthogonalLoop=1;jettySize=auto;html=1;exitX=0.5;exitY=1;exitDx=0;exitDy=0;entryX=0.5;entryY=0;entryDx=0;entryDy=0;" edge="1" parent="1" source="14" target="J-JsFPjW-MlSmSigU-X9-63">
          <mxGeometry relative="1" as="geometry" />
        </mxCell>
        <mxCell id="14" value="3x3 conv, 256" style="shape=rectangle;whiteSpace=wrap;html=1;fillColor=#FFFFCC;" parent="1" vertex="1">
          <mxGeometry x="90" y="680" width="100" height="40" as="geometry" />
        </mxCell>
        <mxCell id="15" value="3x3 conv, 256" style="shape=rectangle;whiteSpace=wrap;html=1;fillColor=#FFFFCC;" parent="1" vertex="1">
          <mxGeometry x="350" y="110" width="100" height="40" as="geometry" />
        </mxCell>
        <mxCell id="16" value="3x3 conv, 256" style="shape=rectangle;whiteSpace=wrap;html=1;fillColor=#FFFFCC;" parent="1" vertex="1">
          <mxGeometry x="350" y="190" width="100" height="40" as="geometry" />
        </mxCell>
        <mxCell id="17" value="3x3 conv, 512,/2" style="shape=rectangle;whiteSpace=wrap;html=1;fillColor=#E5E5FF;" parent="1" vertex="1">
          <mxGeometry x="350" y="270" width="100" height="40" as="geometry" />
        </mxCell>
        <mxCell id="18" value="3x3 conv, 512" style="shape=rectangle;whiteSpace=wrap;html=1;fillColor=#E5E5FF;" parent="1" vertex="1">
          <mxGeometry x="350" y="350" width="100" height="40" as="geometry" />
        </mxCell>
        <mxCell id="19" value="3x3 conv, 512" style="shape=rectangle;whiteSpace=wrap;html=1;fillColor=#E5E5FF;" parent="1" vertex="1">
          <mxGeometry x="350" y="430" width="100" height="40" as="geometry" />
        </mxCell>
        <mxCell id="20" value="3x3 conv, 512" style="shape=rectangle;whiteSpace=wrap;html=1;fillColor=#E5E5FF;" parent="1" vertex="1">
          <mxGeometry x="350" y="510" width="100" height="40" as="geometry" />
        </mxCell>
        <mxCell id="21" value="Средний пулинг" style="shape=rectangle;whiteSpace=wrap;html=1;" parent="1" vertex="1">
          <mxGeometry x="350" y="590" width="100" height="40" as="geometry" />
        </mxCell>
        <mxCell id="22" value="FC, 10" style="shape=rectangle;whiteSpace=wrap;html=1;fillColor=#CCFFFF;" parent="1" vertex="1">
          <mxGeometry x="350" y="680" width="100" height="30" as="geometry" />
        </mxCell>
        <mxCell id="23" parent="1" source="2" target="3" edge="1">
          <mxGeometry relative="1" as="geometry" />
        </mxCell>
        <mxCell id="24" parent="1" source="3" target="4" edge="1">
          <mxGeometry relative="1" as="geometry" />
        </mxCell>
        <mxCell id="25" parent="1" source="4" target="5" edge="1">
          <mxGeometry relative="1" as="geometry" />
        </mxCell>
        <mxCell id="26" parent="1" source="5" target="6" edge="1">
          <mxGeometry relative="1" as="geometry" />
        </mxCell>
        <mxCell id="27" parent="1" source="6" target="7" edge="1">
          <mxGeometry relative="1" as="geometry" />
        </mxCell>
        <mxCell id="28" parent="1" source="7" target="8" edge="1">
          <mxGeometry relative="1" as="geometry" />
        </mxCell>
        <mxCell id="29" parent="1" source="8" target="9" edge="1">
          <mxGeometry relative="1" as="geometry" />
        </mxCell>
        <mxCell id="30" parent="1" source="9" target="10" edge="1">
          <mxGeometry relative="1" as="geometry" />
        </mxCell>
        <mxCell id="31" parent="1" source="10" target="11" edge="1">
          <mxGeometry relative="1" as="geometry" />
        </mxCell>
        <mxCell id="32" parent="1" source="11" target="12" edge="1">
          <mxGeometry relative="1" as="geometry" />
        </mxCell>
        <mxCell id="33" parent="1" source="12" target="13" edge="1">
          <mxGeometry relative="1" as="geometry" />
        </mxCell>
        <mxCell id="34" parent="1" source="13" target="14" edge="1">
          <mxGeometry relative="1" as="geometry" />
        </mxCell>
        <mxCell id="36" parent="1" source="15" target="16" edge="1">
          <mxGeometry relative="1" as="geometry" />
        </mxCell>
        <mxCell id="37" parent="1" source="16" target="17" edge="1">
          <mxGeometry relative="1" as="geometry" />
        </mxCell>
        <mxCell id="38" parent="1" source="17" target="18" edge="1">
          <mxGeometry relative="1" as="geometry" />
        </mxCell>
        <mxCell id="39" parent="1" source="18" target="19" edge="1">
          <mxGeometry relative="1" as="geometry" />
        </mxCell>
        <mxCell id="40" parent="1" source="19" target="20" edge="1">
          <mxGeometry relative="1" as="geometry" />
        </mxCell>
        <mxCell id="41" parent="1" source="20" target="21" edge="1">
          <mxGeometry relative="1" as="geometry" />
        </mxCell>
        <mxCell id="42" parent="1" source="21" target="22" edge="1">
          <mxGeometry relative="1" as="geometry" />
        </mxCell>
        <mxCell id="J-JsFPjW-MlSmSigU-X9-44" style="edgeStyle=orthogonalEdgeStyle;rounded=0;orthogonalLoop=1;jettySize=auto;html=1;exitX=0.5;exitY=1;exitDx=0;exitDy=0;curved=1;" edge="1" parent="1">
          <mxGeometry relative="1" as="geometry">
            <mxPoint x="140" y="-160" as="sourcePoint" />
            <mxPoint x="140" y="-120" as="targetPoint" />
            <Array as="points">
              <mxPoint x="210" y="-160" />
              <mxPoint x="210" y="-130" />
              <mxPoint x="140" y="-130" />
            </Array>
          </mxGeometry>
        </mxCell>
        <mxCell id="J-JsFPjW-MlSmSigU-X9-45" style="edgeStyle=orthogonalEdgeStyle;rounded=0;orthogonalLoop=1;jettySize=auto;html=1;exitX=0.5;exitY=1;exitDx=0;exitDy=0;curved=1;" edge="1" parent="1">
          <mxGeometry relative="1" as="geometry">
            <mxPoint x="140" y="-80" as="sourcePoint" />
            <mxPoint x="140" y="-40" as="targetPoint" />
            <Array as="points">
              <mxPoint x="210" y="-80" />
              <mxPoint x="210" y="-50" />
              <mxPoint x="140" y="-50" />
            </Array>
          </mxGeometry>
        </mxCell>
        <mxCell id="J-JsFPjW-MlSmSigU-X9-46" style="edgeStyle=orthogonalEdgeStyle;rounded=0;orthogonalLoop=1;jettySize=auto;html=1;exitX=0.5;exitY=1;exitDx=0;exitDy=0;curved=1;" edge="1" parent="1">
          <mxGeometry relative="1" as="geometry">
            <mxPoint x="140" as="sourcePoint" />
            <mxPoint x="140" y="40" as="targetPoint" />
            <Array as="points">
              <mxPoint x="210" />
              <mxPoint x="210" y="30" />
              <mxPoint x="140" y="30" />
            </Array>
          </mxGeometry>
        </mxCell>
        <mxCell id="J-JsFPjW-MlSmSigU-X9-47" style="edgeStyle=orthogonalEdgeStyle;rounded=0;orthogonalLoop=1;jettySize=auto;html=1;exitX=0.5;exitY=1;exitDx=0;exitDy=0;curved=1;" edge="1" parent="1">
          <mxGeometry relative="1" as="geometry">
            <mxPoint x="140" y="80" as="sourcePoint" />
            <mxPoint x="140" y="120" as="targetPoint" />
            <Array as="points">
              <mxPoint x="210" y="80" />
              <mxPoint x="210" y="110" />
              <mxPoint x="140" y="110" />
            </Array>
          </mxGeometry>
        </mxCell>
        <mxCell id="J-JsFPjW-MlSmSigU-X9-48" style="edgeStyle=orthogonalEdgeStyle;rounded=0;orthogonalLoop=1;jettySize=auto;html=1;exitX=0.5;exitY=1;exitDx=0;exitDy=0;curved=1;" edge="1" parent="1">
          <mxGeometry relative="1" as="geometry">
            <mxPoint x="140" y="160" as="sourcePoint" />
            <mxPoint x="140" y="200" as="targetPoint" />
            <Array as="points">
              <mxPoint x="210" y="160" />
              <mxPoint x="210" y="190" />
              <mxPoint x="140" y="190" />
            </Array>
          </mxGeometry>
        </mxCell>
        <mxCell id="J-JsFPjW-MlSmSigU-X9-49" style="edgeStyle=orthogonalEdgeStyle;rounded=0;orthogonalLoop=1;jettySize=auto;html=1;exitX=0.5;exitY=1;exitDx=0;exitDy=0;curved=1;" edge="1" parent="1">
          <mxGeometry relative="1" as="geometry">
            <mxPoint x="140" y="240" as="sourcePoint" />
            <mxPoint x="140" y="280" as="targetPoint" />
            <Array as="points">
              <mxPoint x="210" y="240" />
              <mxPoint x="210" y="270" />
              <mxPoint x="140" y="270" />
            </Array>
          </mxGeometry>
        </mxCell>
        <mxCell id="J-JsFPjW-MlSmSigU-X9-50" style="edgeStyle=orthogonalEdgeStyle;rounded=0;orthogonalLoop=1;jettySize=auto;html=1;exitX=0.5;exitY=1;exitDx=0;exitDy=0;curved=1;" edge="1" parent="1">
          <mxGeometry relative="1" as="geometry">
            <mxPoint x="140" y="320" as="sourcePoint" />
            <mxPoint x="140" y="360" as="targetPoint" />
            <Array as="points">
              <mxPoint x="210" y="320" />
              <mxPoint x="210" y="350" />
              <mxPoint x="140" y="350" />
            </Array>
          </mxGeometry>
        </mxCell>
        <mxCell id="J-JsFPjW-MlSmSigU-X9-51" style="edgeStyle=orthogonalEdgeStyle;rounded=0;orthogonalLoop=1;jettySize=auto;html=1;exitX=0.5;exitY=1;exitDx=0;exitDy=0;curved=1;" edge="1" parent="1">
          <mxGeometry relative="1" as="geometry">
            <mxPoint x="140" y="400" as="sourcePoint" />
            <mxPoint x="140" y="440" as="targetPoint" />
            <Array as="points">
              <mxPoint x="210" y="400" />
              <mxPoint x="210" y="430" />
              <mxPoint x="140" y="430" />
            </Array>
          </mxGeometry>
        </mxCell>
        <mxCell id="J-JsFPjW-MlSmSigU-X9-52" style="edgeStyle=orthogonalEdgeStyle;rounded=0;orthogonalLoop=1;jettySize=auto;html=1;exitX=0.5;exitY=1;exitDx=0;exitDy=0;curved=1;" edge="1" parent="1">
          <mxGeometry relative="1" as="geometry">
            <mxPoint x="140" y="480" as="sourcePoint" />
            <mxPoint x="140" y="520" as="targetPoint" />
            <Array as="points">
              <mxPoint x="210" y="480" />
              <mxPoint x="210" y="510" />
              <mxPoint x="140" y="510" />
            </Array>
          </mxGeometry>
        </mxCell>
        <mxCell id="J-JsFPjW-MlSmSigU-X9-53" style="edgeStyle=orthogonalEdgeStyle;rounded=0;orthogonalLoop=1;jettySize=auto;html=1;exitX=0.5;exitY=1;exitDx=0;exitDy=0;curved=1;" edge="1" parent="1">
          <mxGeometry relative="1" as="geometry">
            <mxPoint x="140" y="560" as="sourcePoint" />
            <mxPoint x="140" y="600" as="targetPoint" />
            <Array as="points">
              <mxPoint x="210" y="560" />
              <mxPoint x="210" y="590" />
              <mxPoint x="140" y="590" />
            </Array>
          </mxGeometry>
        </mxCell>
        <mxCell id="J-JsFPjW-MlSmSigU-X9-54" style="edgeStyle=orthogonalEdgeStyle;rounded=0;orthogonalLoop=1;jettySize=auto;html=1;exitX=0.5;exitY=1;exitDx=0;exitDy=0;curved=1;" edge="1" parent="1">
          <mxGeometry relative="1" as="geometry">
            <mxPoint x="140" y="640" as="sourcePoint" />
            <mxPoint x="140" y="680" as="targetPoint" />
            <Array as="points">
              <mxPoint x="210" y="640" />
              <mxPoint x="210" y="670" />
              <mxPoint x="140" y="670" />
            </Array>
          </mxGeometry>
        </mxCell>
        <mxCell id="J-JsFPjW-MlSmSigU-X9-55" style="edgeStyle=orthogonalEdgeStyle;rounded=0;orthogonalLoop=1;jettySize=auto;html=1;exitX=0.5;exitY=1;exitDx=0;exitDy=0;curved=1;" edge="1" parent="1">
          <mxGeometry relative="1" as="geometry">
            <mxPoint x="140" y="720" as="sourcePoint" />
            <mxPoint x="140" y="760" as="targetPoint" />
            <Array as="points">
              <mxPoint x="210" y="720" />
              <mxPoint x="210" y="750" />
              <mxPoint x="140" y="750" />
            </Array>
          </mxGeometry>
        </mxCell>
        <mxCell id="J-JsFPjW-MlSmSigU-X9-56" style="edgeStyle=orthogonalEdgeStyle;rounded=0;orthogonalLoop=1;jettySize=auto;html=1;exitX=0.5;exitY=1;exitDx=0;exitDy=0;curved=1;" edge="1" parent="1">
          <mxGeometry relative="1" as="geometry">
            <mxPoint x="400" y="150" as="sourcePoint" />
            <mxPoint x="400" y="190" as="targetPoint" />
            <Array as="points">
              <mxPoint x="470" y="150" />
              <mxPoint x="470" y="180" />
              <mxPoint x="400" y="180" />
            </Array>
          </mxGeometry>
        </mxCell>
        <mxCell id="J-JsFPjW-MlSmSigU-X9-57" style="edgeStyle=orthogonalEdgeStyle;rounded=0;orthogonalLoop=1;jettySize=auto;html=1;exitX=0.5;exitY=1;exitDx=0;exitDy=0;curved=1;" edge="1" parent="1">
          <mxGeometry relative="1" as="geometry">
            <mxPoint x="400" y="230" as="sourcePoint" />
            <mxPoint x="400" y="270" as="targetPoint" />
            <Array as="points">
              <mxPoint x="470" y="230" />
              <mxPoint x="470" y="260" />
              <mxPoint x="400" y="260" />
            </Array>
          </mxGeometry>
        </mxCell>
        <mxCell id="J-JsFPjW-MlSmSigU-X9-58" style="edgeStyle=orthogonalEdgeStyle;rounded=0;orthogonalLoop=1;jettySize=auto;html=1;exitX=0.5;exitY=1;exitDx=0;exitDy=0;curved=1;" edge="1" parent="1">
          <mxGeometry relative="1" as="geometry">
            <mxPoint x="400" y="310" as="sourcePoint" />
            <mxPoint x="400" y="350" as="targetPoint" />
            <Array as="points">
              <mxPoint x="470" y="310" />
              <mxPoint x="470" y="340" />
              <mxPoint x="400" y="340" />
            </Array>
          </mxGeometry>
        </mxCell>
        <mxCell id="J-JsFPjW-MlSmSigU-X9-59" style="edgeStyle=orthogonalEdgeStyle;rounded=0;orthogonalLoop=1;jettySize=auto;html=1;exitX=0.5;exitY=1;exitDx=0;exitDy=0;curved=1;" edge="1" parent="1">
          <mxGeometry relative="1" as="geometry">
            <mxPoint x="400" y="390" as="sourcePoint" />
            <mxPoint x="400" y="430" as="targetPoint" />
            <Array as="points">
              <mxPoint x="470" y="390" />
              <mxPoint x="470" y="420" />
              <mxPoint x="400" y="420" />
            </Array>
          </mxGeometry>
        </mxCell>
        <mxCell id="J-JsFPjW-MlSmSigU-X9-60" style="edgeStyle=orthogonalEdgeStyle;rounded=0;orthogonalLoop=1;jettySize=auto;html=1;exitX=0.5;exitY=1;exitDx=0;exitDy=0;curved=1;" edge="1" parent="1">
          <mxGeometry relative="1" as="geometry">
            <mxPoint x="400" y="470" as="sourcePoint" />
            <mxPoint x="400" y="510" as="targetPoint" />
            <Array as="points">
              <mxPoint x="470" y="470" />
              <mxPoint x="470" y="500" />
              <mxPoint x="400" y="500" />
            </Array>
          </mxGeometry>
        </mxCell>
        <mxCell id="J-JsFPjW-MlSmSigU-X9-61" style="edgeStyle=orthogonalEdgeStyle;rounded=0;orthogonalLoop=1;jettySize=auto;html=1;exitX=0.5;exitY=1;exitDx=0;exitDy=0;curved=1;" edge="1" parent="1">
          <mxGeometry relative="1" as="geometry">
            <mxPoint x="400" y="550" as="sourcePoint" />
            <mxPoint x="400" y="590" as="targetPoint" />
            <Array as="points">
              <mxPoint x="470" y="550" />
              <mxPoint x="470" y="580" />
              <mxPoint x="400" y="580" />
            </Array>
          </mxGeometry>
        </mxCell>
        <mxCell id="J-JsFPjW-MlSmSigU-X9-63" value="а" style="ellipse;whiteSpace=wrap;html=1;aspect=fixed;" vertex="1" parent="1">
          <mxGeometry x="115" y="760" width="50" height="50" as="geometry" />
        </mxCell>
        <mxCell id="J-JsFPjW-MlSmSigU-X9-66" style="edgeStyle=orthogonalEdgeStyle;rounded=0;orthogonalLoop=1;jettySize=auto;html=1;exitX=0.5;exitY=1;exitDx=0;exitDy=0;entryX=0.5;entryY=0;entryDx=0;entryDy=0;" edge="1" parent="1" source="J-JsFPjW-MlSmSigU-X9-65" target="15">
          <mxGeometry relative="1" as="geometry" />
        </mxCell>
        <mxCell id="J-JsFPjW-MlSmSigU-X9-65" value="а" style="ellipse;whiteSpace=wrap;html=1;aspect=fixed;" vertex="1" parent="1">
          <mxGeometry x="375" y="20" width="50" height="50" as="geometry" />
        </mxCell>
      </root>
    </mxGraphModel>
  </diagram>
  <diagram id="bHB7LaZXOnizVh2eOBYf" name="Página-2">
    <mxGraphModel dx="875" dy="835" grid="1" gridSize="10" guides="1" tooltips="1" connect="1" arrows="1" fold="1" page="0" pageScale="1" pageWidth="827" pageHeight="1169" math="0" shadow="0">
      <root>
        <mxCell id="0" />
        <mxCell id="1" parent="0" />
        <mxCell id="2i8jAGGfS-wxbbcfFyaO-18" value="" style="whiteSpace=wrap;html=1;fillColor=none;dashed=1;" vertex="1" parent="1">
          <mxGeometry x="80" y="-220" width="240" height="420" as="geometry" />
        </mxCell>
        <mxCell id="2i8jAGGfS-wxbbcfFyaO-12" style="edgeStyle=orthogonalEdgeStyle;rounded=0;orthogonalLoop=1;jettySize=auto;html=1;exitX=0.5;exitY=0;exitDx=0;exitDy=0;entryX=0.5;entryY=1;entryDx=0;entryDy=0;" edge="1" parent="1" source="2i8jAGGfS-wxbbcfFyaO-1" target="2i8jAGGfS-wxbbcfFyaO-8">
          <mxGeometry relative="1" as="geometry" />
        </mxCell>
        <mxCell id="2i8jAGGfS-wxbbcfFyaO-1" value="3 x 3 Conv&amp;nbsp;" style="rounded=0;whiteSpace=wrap;html=1;" vertex="1" parent="1">
          <mxGeometry x="120" y="120" width="160" height="40" as="geometry" />
        </mxCell>
        <mxCell id="2i8jAGGfS-wxbbcfFyaO-3" style="edgeStyle=orthogonalEdgeStyle;rounded=0;orthogonalLoop=1;jettySize=auto;html=1;entryX=0.5;entryY=1;entryDx=0;entryDy=0;" edge="1" parent="1" source="2i8jAGGfS-wxbbcfFyaO-2" target="2i8jAGGfS-wxbbcfFyaO-1">
          <mxGeometry relative="1" as="geometry" />
        </mxCell>
        <mxCell id="2i8jAGGfS-wxbbcfFyaO-19" style="edgeStyle=orthogonalEdgeStyle;rounded=0;orthogonalLoop=1;jettySize=auto;html=1;entryX=0.467;entryY=1;entryDx=0;entryDy=0;entryPerimeter=0;" edge="1" parent="1" target="2i8jAGGfS-wxbbcfFyaO-20">
          <mxGeometry relative="1" as="geometry">
            <mxPoint x="440" y="10" as="targetPoint" />
            <mxPoint x="210" y="219" as="sourcePoint" />
            <Array as="points">
              <mxPoint x="200" y="219" />
              <mxPoint x="440" y="220" />
            </Array>
          </mxGeometry>
        </mxCell>
        <mxCell id="2i8jAGGfS-wxbbcfFyaO-2" value="х" style="text;html=1;align=center;verticalAlign=middle;resizable=0;points=[];autosize=1;strokeColor=none;fillColor=none;" vertex="1" parent="1">
          <mxGeometry x="185" y="230" width="30" height="30" as="geometry" />
        </mxCell>
        <mxCell id="2i8jAGGfS-wxbbcfFyaO-4" value="Функция активации" style="rounded=0;whiteSpace=wrap;html=1;" vertex="1" parent="1">
          <mxGeometry x="120" y="-300" width="160" height="40" as="geometry" />
        </mxCell>
        <mxCell id="2i8jAGGfS-wxbbcfFyaO-16" style="edgeStyle=orthogonalEdgeStyle;rounded=0;orthogonalLoop=1;jettySize=auto;html=1;exitX=0.5;exitY=0;exitDx=0;exitDy=0;entryX=0.5;entryY=1;entryDx=0;entryDy=0;" edge="1" parent="1" source="2i8jAGGfS-wxbbcfFyaO-5" target="2i8jAGGfS-wxbbcfFyaO-10">
          <mxGeometry relative="1" as="geometry" />
        </mxCell>
        <mxCell id="2i8jAGGfS-wxbbcfFyaO-5" value="нормализациия пакета" style="rounded=0;whiteSpace=wrap;html=1;" vertex="1" parent="1">
          <mxGeometry x="120" y="-120" width="160" height="40" as="geometry" />
        </mxCell>
        <mxCell id="2i8jAGGfS-wxbbcfFyaO-15" style="edgeStyle=orthogonalEdgeStyle;rounded=0;orthogonalLoop=1;jettySize=auto;html=1;exitX=0.5;exitY=0;exitDx=0;exitDy=0;entryX=0.5;entryY=1;entryDx=0;entryDy=0;" edge="1" parent="1" source="2i8jAGGfS-wxbbcfFyaO-6" target="2i8jAGGfS-wxbbcfFyaO-5">
          <mxGeometry relative="1" as="geometry" />
        </mxCell>
        <mxCell id="2i8jAGGfS-wxbbcfFyaO-6" value="3 x 3 Conv&amp;nbsp;" style="rounded=0;whiteSpace=wrap;html=1;" vertex="1" parent="1">
          <mxGeometry x="120" y="-60" width="160" height="40" as="geometry" />
        </mxCell>
        <mxCell id="2i8jAGGfS-wxbbcfFyaO-14" style="edgeStyle=orthogonalEdgeStyle;rounded=0;orthogonalLoop=1;jettySize=auto;html=1;exitX=0.5;exitY=0;exitDx=0;exitDy=0;entryX=0.5;entryY=1;entryDx=0;entryDy=0;" edge="1" parent="1" source="2i8jAGGfS-wxbbcfFyaO-7" target="2i8jAGGfS-wxbbcfFyaO-6">
          <mxGeometry relative="1" as="geometry" />
        </mxCell>
        <mxCell id="2i8jAGGfS-wxbbcfFyaO-7" value="Функция активации" style="rounded=0;whiteSpace=wrap;html=1;" vertex="1" parent="1">
          <mxGeometry x="120" width="160" height="40" as="geometry" />
        </mxCell>
        <mxCell id="2i8jAGGfS-wxbbcfFyaO-13" style="edgeStyle=orthogonalEdgeStyle;rounded=0;orthogonalLoop=1;jettySize=auto;html=1;exitX=0.5;exitY=0;exitDx=0;exitDy=0;entryX=0.5;entryY=1;entryDx=0;entryDy=0;" edge="1" parent="1" source="2i8jAGGfS-wxbbcfFyaO-8" target="2i8jAGGfS-wxbbcfFyaO-7">
          <mxGeometry relative="1" as="geometry" />
        </mxCell>
        <mxCell id="2i8jAGGfS-wxbbcfFyaO-8" value="нормализациия пакета" style="rounded=0;whiteSpace=wrap;html=1;" vertex="1" parent="1">
          <mxGeometry x="120" y="60" width="160" height="40" as="geometry" />
        </mxCell>
        <mxCell id="2i8jAGGfS-wxbbcfFyaO-17" style="edgeStyle=orthogonalEdgeStyle;rounded=0;orthogonalLoop=1;jettySize=auto;html=1;exitX=0.5;exitY=0;exitDx=0;exitDy=0;entryX=0.5;entryY=1;entryDx=0;entryDy=0;" edge="1" parent="1" source="2i8jAGGfS-wxbbcfFyaO-10" target="2i8jAGGfS-wxbbcfFyaO-4">
          <mxGeometry relative="1" as="geometry" />
        </mxCell>
        <mxCell id="2i8jAGGfS-wxbbcfFyaO-10" value="+" style="ellipse;whiteSpace=wrap;html=1;aspect=fixed;" vertex="1" parent="1">
          <mxGeometry x="180" y="-200" width="40" height="40" as="geometry" />
        </mxCell>
        <mxCell id="2i8jAGGfS-wxbbcfFyaO-21" style="edgeStyle=orthogonalEdgeStyle;rounded=0;orthogonalLoop=1;jettySize=auto;html=1;" edge="1" parent="1" source="2i8jAGGfS-wxbbcfFyaO-20">
          <mxGeometry relative="1" as="geometry">
            <mxPoint x="220" y="-180" as="targetPoint" />
            <Array as="points">
              <mxPoint x="430" y="-180" />
            </Array>
          </mxGeometry>
        </mxCell>
        <mxCell id="2i8jAGGfS-wxbbcfFyaO-20" value="1 х 1&amp;nbsp;" style="rounded=0;whiteSpace=wrap;html=1;" vertex="1" parent="1">
          <mxGeometry x="360" y="-40" width="150" height="40" as="geometry" />
        </mxCell>
      </root>
    </mxGraphModel>
  </diagram>
  <diagram id="dAOyXEYPLm9bit5NhFzf" name="Página-3">
    <mxGraphModel dx="1050" dy="522" grid="1" gridSize="10" guides="1" tooltips="1" connect="1" arrows="1" fold="1" page="0" pageScale="1" pageWidth="827" pageHeight="1169" math="0" shadow="0">
      <root>
        <mxCell id="0" />
        <mxCell id="1" parent="0" />
      </root>
    </mxGraphModel>
  </diagram>
</mxfile>
